<svg width="16" height="16" viewBox="0 0 16 16" fill="none" xmlns="http://www.w3.org/2000/svg">
<g id="Component 1/bx:time-five">
<path id="Vector" d="M7.99992 1.3335C4.32392 1.3335 1.33325 4.32416 1.33325 8.00016C1.33325 11.6762 4.32392 14.6668 7.99992 14.6668C11.6759 14.6668 14.6666 11.6762 14.6666 8.00016C14.6666 4.32416 11.6759 1.3335 7.99992 1.3335ZM7.99992 13.3335C5.05925 13.3335 2.66659 10.9408 2.66659 8.00016C2.66659 5.0595 5.05925 2.66683 7.99992 2.66683C10.9406 2.66683 13.3333 5.0595 13.3333 8.00016C13.3333 10.9408 10.9406 13.3335 7.99992 13.3335Z" fill="#F56411"/>
<path id="Vector_2" d="M8.66659 4.6665H7.33325V8.27584L9.52859 10.4712L10.4713 9.5285L8.66659 7.72384V4.6665Z" fill="#F56411"/>
</g>
</svg>
