<svg width="16" height="16" viewBox="0 0 16 16" fill="none" xmlns="http://www.w3.org/2000/svg">
<g id="Component 1/foundation:telephone">
<path id="Vector" d="M13.5935 11.2377C13.5668 11.0726 13.4633 10.9314 13.3083 10.8476L11.0147 9.49625L10.9958 9.48569C10.8996 9.43755 10.7934 9.41288 10.6859 9.41369C10.4937 9.41369 10.3102 9.48649 10.1828 9.61417L9.50585 10.2914C9.47689 10.319 9.38249 10.3588 9.35385 10.3602C9.34601 10.3596 8.56617 10.3034 7.13049 8.86761C5.69737 7.43481 5.63657 6.65257 5.63609 6.65257C5.63689 6.61257 5.67625 6.51849 5.70425 6.48937L6.28153 5.91225C6.48489 5.70841 6.54585 5.37049 6.42521 5.10873L5.15033 2.70985C5.05769 2.51913 4.87769 2.40137 4.67801 2.40137C4.53673 2.40137 4.40041 2.45993 4.29385 2.56633L2.72025 4.13641C2.56937 4.28649 2.43945 4.54889 2.41113 4.76009C2.39737 4.86105 2.11817 7.27097 5.42217 10.5754C8.22713 13.3801 10.4143 13.598 11.0183 13.598C11.0919 13.599 11.1654 13.5952 11.2385 13.5866C11.449 13.5585 11.7111 13.4289 11.8611 13.2786L13.4334 11.7065C13.5617 11.5775 13.6202 11.4071 13.5935 11.2377Z" fill="#F56411"/>
</g>
</svg>
