<svg width="16" height="16" viewBox="0 0 16 16" fill="none" xmlns="http://www.w3.org/2000/svg">
<g id="Socio icons/IG" clip-path="url(#clip0_2027_7439)">
<path id="Vector" fill-rule="evenodd" clip-rule="evenodd" d="M4.97663 0.710992C5.75863 0.674992 6.00796 0.666992 7.99996 0.666992C9.99196 0.666992 10.2413 0.675659 11.0226 0.710992C11.804 0.746326 12.3373 0.870992 12.804 1.05166C13.2926 1.23633 13.736 1.52499 14.1026 1.89833C14.476 2.26433 14.764 2.70699 14.948 3.19633C15.1293 3.66299 15.2533 4.19633 15.2893 4.97633C15.3253 5.75966 15.3333 6.00899 15.3333 8.00033C15.3333 9.99232 15.3246 10.2417 15.2893 11.0237C15.254 11.8037 15.1293 12.337 14.948 12.8037C14.764 13.2931 14.4755 13.7365 14.1026 14.103C13.736 14.4763 13.2926 14.7643 12.804 14.9483C12.3373 15.1297 11.804 15.2537 11.024 15.2897C10.2413 15.3257 9.99196 15.3337 7.99996 15.3337C6.00796 15.3337 5.75863 15.325 4.97663 15.2897C4.19663 15.2543 3.66329 15.1297 3.19663 14.9483C2.70724 14.7643 2.26384 14.4758 1.89729 14.103C1.52421 13.7368 1.2355 13.2936 1.05129 12.8043C0.870626 12.3377 0.746626 11.8043 0.710626 11.0243C0.674626 10.241 0.666626 9.99166 0.666626 8.00033C0.666626 6.00833 0.675293 5.75899 0.710626 4.97766C0.745959 4.19633 0.870626 3.66299 1.05129 3.19633C1.23577 2.70705 1.52471 2.26387 1.89796 1.89766C2.26399 1.52466 2.70694 1.23595 3.19596 1.05166C3.66263 0.870992 4.19596 0.746992 4.97596 0.710992H4.97663ZM10.9633 2.03099C10.19 1.99566 9.95796 1.98833 7.99996 1.98833C6.04196 1.98833 5.80996 1.99566 5.03663 2.03099C4.32129 2.06366 3.93329 2.18299 3.67463 2.28366C3.33263 2.41699 3.08796 2.57499 2.83129 2.83166C2.58799 3.06836 2.40075 3.35651 2.28329 3.67499C2.18263 3.93366 2.06329 4.32166 2.03063 5.03699C1.99529 5.81033 1.98796 6.04233 1.98796 8.00033C1.98796 9.95833 1.99529 10.1903 2.03063 10.9637C2.06329 11.679 2.18263 12.067 2.28329 12.3257C2.40063 12.6437 2.58796 12.9323 2.83129 13.169C3.06796 13.4123 3.35663 13.5997 3.67463 13.717C3.93329 13.8177 4.32129 13.937 5.03663 13.9697C5.80996 14.005 6.04129 14.0123 7.99996 14.0123C9.95863 14.0123 10.19 14.005 10.9633 13.9697C11.6786 13.937 12.0666 13.8177 12.3253 13.717C12.6673 13.5837 12.912 13.4257 13.1686 13.169C13.412 12.9323 13.5993 12.6437 13.7166 12.3257C13.8173 12.067 13.9366 11.679 13.9693 10.9637C14.0046 10.1903 14.012 9.95833 14.012 8.00033C14.012 6.04233 14.0046 5.81033 13.9693 5.03699C13.9366 4.32166 13.8173 3.93366 13.7166 3.67499C13.5833 3.33299 13.4253 3.08833 13.1686 2.83166C12.9319 2.58837 12.6438 2.40113 12.3253 2.28366C12.0666 2.18299 11.6786 2.06366 10.9633 2.03099ZM7.06329 10.261C7.5864 10.4787 8.16888 10.5081 8.71124 10.3441C9.25361 10.1801 9.72222 9.83294 10.037 9.36182C10.3518 8.8907 10.4933 8.32491 10.4373 7.76106C10.3813 7.19722 10.1313 6.67031 9.72996 6.27033C9.47412 6.01464 9.16477 5.81887 8.82418 5.69709C8.48359 5.57531 8.12024 5.53057 7.76029 5.56607C7.40033 5.60157 7.05273 5.71644 6.7425 5.90241C6.43226 6.08838 6.16712 6.34082 5.96616 6.64156C5.7652 6.9423 5.63342 7.28385 5.5803 7.64163C5.52719 7.99941 5.55406 8.36452 5.65899 8.71067C5.76391 9.05682 5.94428 9.3754 6.18711 9.64347C6.42993 9.91155 6.72918 10.1224 7.06329 10.261ZM5.33463 5.33499C5.68464 4.98498 6.10017 4.70733 6.55749 4.5179C7.01481 4.32847 7.50496 4.23097 7.99996 4.23097C8.49496 4.23097 8.98511 4.32847 9.44243 4.5179C9.89974 4.70733 10.3153 4.98498 10.6653 5.33499C11.0153 5.68501 11.293 6.10054 11.4824 6.55786C11.6718 7.01518 11.7693 7.50533 11.7693 8.00033C11.7693 8.49532 11.6718 8.98547 11.4824 9.44279C11.293 9.90011 11.0153 10.3156 10.6653 10.6657C9.9584 11.3725 8.99965 11.7697 7.99996 11.7697C7.00027 11.7697 6.04152 11.3725 5.33463 10.6657C4.62774 9.95877 4.23061 9.00002 4.23061 8.00033C4.23061 7.00063 4.62774 6.04188 5.33463 5.33499ZM12.6053 4.79233C12.692 4.7105 12.7615 4.61211 12.8095 4.50297C12.8575 4.39384 12.8832 4.27617 12.8849 4.15695C12.8866 4.03772 12.8644 3.91936 12.8196 3.80887C12.7748 3.69837 12.7082 3.598 12.6239 3.51368C12.5396 3.42937 12.4392 3.36283 12.3288 3.318C12.2183 3.27318 12.0999 3.25098 11.9807 3.25271C11.8614 3.25445 11.7438 3.28009 11.6346 3.32812C11.5255 3.37615 11.4271 3.44559 11.3453 3.53233C11.1862 3.70101 11.099 3.92507 11.1024 4.15695C11.1058 4.38882 11.1994 4.61024 11.3634 4.77422C11.5274 4.9382 11.7488 5.03181 11.9807 5.03519C12.2125 5.03857 12.4366 4.95145 12.6053 4.79233Z" fill="white"/>
</g>
<defs>
<clipPath id="clip0_2027_7439">
<rect width="16" height="16" fill="white"/>
</clipPath>
</defs>
</svg>
