<svg width="14" height="14" viewBox="0 0 14 14" fill="none" xmlns="http://www.w3.org/2000/svg">
<g id="Socio icons/IN">
<path id="Vector" fill-rule="evenodd" clip-rule="evenodd" d="M5.50021 5.23224H7.66671V6.31141C7.97879 5.69074 8.77913 5.13308 9.98138 5.13308C12.2861 5.13308 12.8333 6.36858 12.8333 8.63541V12.8337H10.5V9.15166C10.5 7.86074 10.1879 7.13274 9.39338 7.13274C8.29146 7.13274 7.83354 7.91733 7.83354 9.15108V12.8337H5.50021V5.23224ZM1.49913 12.7345H3.83246V5.13308H1.49913V12.7345ZM4.16671 2.65449C4.1668 2.85007 4.12801 3.04371 4.0526 3.22417C3.9772 3.40462 3.86667 3.56829 3.72746 3.70566C3.44536 3.98602 3.06352 4.14296 2.66579 4.14199C2.26877 4.14173 1.88781 3.98519 1.60529 3.70624C1.46658 3.56841 1.35643 3.40456 1.28116 3.22408C1.20589 3.0436 1.16696 2.85004 1.16663 2.65449C1.16663 2.25958 1.32413 1.88158 1.60588 1.60274C1.88814 1.32342 2.26927 1.16682 2.66638 1.16699C3.06421 1.16699 3.44571 1.32391 3.72746 1.60274C4.00863 1.88158 4.16671 2.25958 4.16671 2.65449Z" fill="white"/>
</g>
</svg>
