<svg width="16" height="16" viewBox="0 0 16 16" fill="none" xmlns="http://www.w3.org/2000/svg">
<g id="Socio icons/T">
<path id="Vector" d="M15.762 3.29171C15.2053 3.53838 14.6073 3.70504 13.9786 3.78038C14.6273 3.39224 15.1126 2.78135 15.344 2.06171C14.7345 2.4237 14.0675 2.67851 13.372 2.81504C12.9042 2.31562 12.2847 1.98459 11.6095 1.87336C10.9344 1.76212 10.2414 1.8769 9.63813 2.19988C9.03489 2.52285 8.55515 3.03595 8.2734 3.65951C7.99166 4.28307 7.92366 4.98221 8.07997 5.64838C6.84509 5.58637 5.63705 5.26541 4.53425 4.70631C3.43145 4.14722 2.45853 3.36248 1.67863 2.40304C1.41197 2.86304 1.25863 3.39638 1.25863 3.96438C1.25834 4.47571 1.38426 4.97921 1.62522 5.4302C1.86618 5.88119 2.21474 6.26574 2.63997 6.54971C2.14682 6.53402 1.66455 6.40077 1.2333 6.16104V6.20104C1.23325 6.9182 1.48132 7.6133 1.93542 8.16837C2.38952 8.72345 3.02168 9.10433 3.72463 9.24638C3.26716 9.37019 2.78753 9.38842 2.32197 9.29971C2.5203 9.91679 2.90663 10.4564 3.42688 10.843C3.94713 11.2296 4.57525 11.4438 5.2233 11.4557C4.12319 12.3193 2.76456 12.7878 1.36597 12.7857C1.11822 12.7858 0.870685 12.7713 0.624634 12.7424C2.04428 13.6552 3.69686 14.1396 5.38463 14.1377C11.098 14.1377 14.2213 9.40571 14.2213 5.30171C14.2213 5.16838 14.218 5.03371 14.212 4.90038C14.8195 4.46103 15.3439 3.91697 15.7606 3.29371L15.762 3.29171Z" fill="white"/>
</g>
</svg>
